<?xml version="1.0" encoding="UTF-8" standalone="no"?>
<svg
   height="16"
   viewBox="0 -960 640 640"
   width="16"
   fill="#e3e3e3"
   version="1.1"
   id="svg1"
   sodipodi:docname="swap_driving_apps_wheel_24dp_E3E3E3_FILL0_wght400_GRAD0_opsz24.svg"
   inkscape:version="1.4.2 (ebf0e940d0, 2025-05-08)"
   xmlns:inkscape="http://www.inkscape.org/namespaces/inkscape"
   xmlns:sodipodi="http://sodipodi.sourceforge.net/DTD/sodipodi-0.dtd"
   xmlns="http://www.w3.org/2000/svg"
   xmlns:svg="http://www.w3.org/2000/svg">
  <defs
     id="defs1" />
  <sodipodi:namedview
     id="namedview1"
     pagecolor="#ffffff"
     bordercolor="#000000"
     borderopacity="0.25"
     inkscape:showpageshadow="2"
     inkscape:pageopacity="0.0"
     inkscape:pagecheckerboard="true"
     inkscape:deskcolor="#d1d1d1"
     inkscape:zoom="36.583333"
     inkscape:cx="11.986333"
     inkscape:cy="12"
     inkscape:window-width="1920"
     inkscape:window-height="1131"
     inkscape:window-x="0"
     inkscape:window-y="0"
     inkscape:window-maximized="1"
     inkscape:current-layer="svg1" />
  <path
     d="m 319.99999,-336.76539 q -62.16308,0 -117.5034,-23.87973 -55.34032,-23.87973 -96.65604,-65.19544 -41.315716,-41.31573 -65.195442,-96.65604 -23.879726,-55.34032 -23.879726,-117.50342 0,-62.92118 23.879726,-117.88245 23.879726,-54.96128 65.195442,-96.277 41.31572,-41.31572 96.65604,-65.19538 55.34032,-23.87976 117.5034,-23.87976 62.92119,0 117.88246,23.87976 54.96128,23.87966 96.277,65.19538 41.31571,41.31572 65.19544,96.277 23.87973,54.96127 23.87973,117.88245 0,62.1631 -23.87973,117.50342 -23.87973,55.34031 -65.19544,96.65604 -41.31572,41.31571 -96.277,65.19544 -54.96127,23.87973 -117.88246,23.87973 z m 0,-181.94077 q 45.4852,0 88.69613,13.2665 43.21094,13.26652 81.11527,38.28337 34.87197,-34.87197 53.82414,-79.22003 18.95217,-44.34807 18.95217,-93.6237 0,-101.58359 -70.50206,-172.08565 -70.50205,-70.50205 -172.08565,-70.50205 -101.58358,0 -172.08564,70.50205 -70.502044,70.50206 -70.502044,172.08565 0,49.27563 18.57312,94.00273 18.573124,44.72711 54.203194,78.841 37.90432,-25.01685 81.11525,-38.28337 43.21094,-13.2665 88.69612,-13.2665 z m 0,60.64692 q -31.08154,0 -60.64691,7.58086 -29.56537,7.58087 -56.09841,22.7426 26.53304,15.16173 56.09841,22.74259 29.56537,7.58087 60.64691,7.58087 31.08156,0 60.64693,-7.58087 29.56538,-7.58086 56.0984,-22.74259 -26.53302,-15.16173 -56.0984,-22.7426 -29.56537,-7.58086 -60.64693,-7.58086 z M 168.3827,-670.32348 q 12.88746,0 21.60546,-8.718 8.71799,-8.71799 8.71799,-21.60547 0,-12.88746 -8.71799,-21.60546 -8.718,-8.71799 -21.60546,-8.71799 -12.88748,0 -21.60547,8.71799 -8.718,8.718 -8.718,21.60546 0,12.88748 8.718,21.60547 8.71799,8.718 21.60547,8.718 z m 90.97038,-90.97039 q 12.88746,0 21.60545,-8.71799 8.71801,-8.718 8.71801,-21.60547 0,-12.88747 -8.71801,-21.60546 -8.71799,-8.718 -21.60545,-8.718 -12.88747,0 -21.60547,8.718 -8.71799,8.71799 -8.71799,21.60546 0,12.88747 8.71799,21.60547 8.718,8.71799 21.60547,8.71799 z m 212.26423,90.97039 q 12.88747,0 21.60546,-8.718 8.718,-8.71799 8.718,-21.60547 0,-12.88746 -8.718,-21.60546 -8.71799,-8.71799 -21.60546,-8.71799 -12.88748,0 -21.60547,8.71799 -8.718,8.718 -8.718,21.60546 0,12.88748 8.718,21.60547 8.71799,8.718 21.60547,8.718 z m -151.61732,90.97038 q 25.01686,0 42.8319,-17.81502 17.81503,-17.81504 17.81503,-42.8319 0,-9.85512 -3.03235,-19.3312 -3.03234,-9.47608 -9.09703,-17.05695 l 40.93667,-103.09977 q 5.3066,-12.12939 0.37904,-23.87973 -4.92756,-11.75034 -17.05695,-17.05695 -11.3713,-5.3066 -23.12164,-0.37904 -11.75033,4.92756 -16.29886,17.05695 l -40.93667,103.09976 q -22.74259,3.79044 -37.90432,20.84739 -15.16173,17.05695 -15.16173,39.79954 0,25.01686 17.81502,42.8319 17.81504,17.81502 42.83189,17.81502 z m 0,60.64694 z m 0,-156.16584 z m 0,216.81276 z"
     id="path1"
     style="fill:#ffffff;fill-opacity:1;stroke-width:0.758087" />
</svg>
